<svg xmlns="http://www.w3.org/2000/svg">

<symbol id="save-icon" viewBox="0 0 25 25">
<line x1="12.5" y1="2.08" x2="12.5" y2="19.37" />
<path d="M 2.08,17.71 T 2.08,21.67 Q 2.08,22.92 3.33,22.92 T 21.67,22.92 Q 22.92,22.92 22.92,21.67 T 22.92,17.71" />
<polyline points="7.29,14.17 12.5,19.37 17.71,14.17" />
</symbol>

<symbol id="copy-icon" viewBox="0 0 20 25">
<rect x="1" y="1.25" width="12.6" height="15.75" />
<rect x="6.4" y="8" width="12.6" height="15.75" />
</symbol>

<symbol id="svg-check" viewBox="0 0 24 24">
<path d="M9.86 18a1 1 0 01-.73-.32l-4.86-5.17a1.001 1.001 0 011.46-1.37l4.12 4.39 8.41-9.2a1 1 0 111.48 1.34l-9.14 10a1 1 0 01-.73.33h-.01z"></path>
</symbol>

<symbol id="font-icon" viewBox="0 0 25 25">
<text x="2.5" y="22.5" font-size="25px" font-family="sans-serif" font-weight="bold">A</text>
</symbol>

<symbol id="docs-icon" viewBox="0 0 25 25">
<text x="6.5" y="21.75" font-size="25px" font-family="IBMPlexSans" font-weight="bold">?</text>
</symbol>

</svg>
