<svg viewBox="0 0 64 63.86998630932237" xmlns="http://www.w3.org/2000/svg" stroke="black" fill="none" font-family="IBMPlexSans" font-weight="100">
<g>
<g>
<g>
<g>
<rect x="24.3607666153615" y="5.3279127913876" width="15.278466769277" height="15.278466769277" stroke="#1e88e5" fill="#EEE" opacity="0.8" />
</g>
<g>
<rect x="30.5619041781685" y="6.3626996315684" width="15.278466769277" height="15.278466769277" stroke="#367bd6" fill="#EEE" opacity="0.8" transform="rotate(56.84210526315789 38.201137562807 14.0019330162069)" />
</g>
<g>
<rect x="36.0910522654822" y="9.3549249416049" width="15.278466769277" height="15.278466769277" stroke="#4d6ec7" fill="#EEE" opacity="0.8" transform="rotate(113.68421052631578 43.7302856501207 16.9941583262434)" />
</g>
<g>
<rect x="40.3490418884698" y="13.9803346799954" width="15.278466769277" height="15.278466769277" stroke="#6561b8" fill="#EEE" opacity="0.8" transform="rotate(170.52631578947367 47.9882752731083 21.6195680646339)" />
</g>
<g>
<rect x="42.8744538019644" y="19.7376939309582" width="15.2784667692769" height="15.2784667692769" stroke="#7d54a9" fill="#EEE" opacity="0.8" transform="rotate(227.36842105263156 50.5136871866029 27.3769273155967)" />
</g>
<g>
<rect x="43.3936204393354" y="26.0031034850184" width="15.278466769277" height="15.278466769277" stroke="#94479a" fill="#EEE" opacity="0.8" transform="rotate(284.2105263157895 51.0328538239739 33.6423368696569)" />
</g>
<g>
<rect x="41.8502820397234" y="32.0976089991475" width="15.278466769277" height="15.278466769277" stroke="#ac3a8b" fill="#EEE" opacity="0.8" transform="rotate(341.05263157894734 49.4895154243619 39.736842383786)" />
</g>
<g>
<rect x="38.4116832660889" y="37.3607762348932" width="15.278466769277" height="15.278466769277" stroke="#c42d7c" fill="#EEE" opacity="0.8" transform="rotate(397.89473684210526 46.0509166507274 45.0000096195317)" />
</g>
<g>
<rect x="33.4504496509127" y="41.2222593558084" width="15.2784667692769" height="15.2784667692769" stroke="#db206d" fill="#EEE" opacity="0.8" transform="rotate(454.7368421052631 41.0896830355512 48.8614927404469)" />
</g>
<g>
<rect x="27.5042078378702" y="43.2636067486578" width="15.278466769277" height="15.278466769277" stroke="#f3135e" fill="#EEE" opacity="0.8" transform="rotate(511.57894736842104 35.1434412225087 50.9028401332963)" />
</g>
<g>
<rect x="21.2173253928528" y="43.2636067486578" width="15.278466769277" height="15.278466769277" stroke="#f3135e" fill="#EEE" opacity="0.8" transform="rotate(568.421052631579 28.8565587774913 50.9028401332963)" />
</g>
<g>
<rect x="15.2710835798104" y="41.2222593558084" width="15.278466769277" height="15.278466769277" stroke="#db206d" fill="#EEE" opacity="0.8" transform="rotate(625.2631578947369 22.9103169644488 48.8614927404469)" />
</g>
<g>
<rect x="10.3098499646341" y="37.3607762348933" width="15.278466769277" height="15.278466769277" stroke="#c42d7c" fill="#EEE" opacity="0.8" transform="rotate(682.1052631578947 17.9490833492726 45.0000096195317)" />
</g>
<g>
<rect x="6.8712511909996" y="32.0976089991475" width="15.278466769277" height="15.278466769277" stroke="#ac3a8b" fill="#EEE" opacity="0.8" transform="rotate(738.9473684210526 14.5104845756381 39.736842383786)" />
</g>
<g>
<rect x="5.3279127913876" y="26.0031034850184" width="15.278466769277" height="15.278466769277" stroke="#94479a" fill="#EEE" opacity="0.8" transform="rotate(795.7894736842105 12.9671461760261 33.6423368696569)" />
</g>
<g>
<rect x="5.8470794287586" y="19.7376939309582" width="15.278466769277" height="15.278466769277" stroke="#7d54a9" fill="#EEE" opacity="0.8" transform="rotate(852.6315789473684 13.4863128133971 27.3769273155967)" />
</g>
<g>
<rect x="8.3724913422532" y="13.9803346799954" width="15.278466769277" height="15.278466769277" stroke="#6561b8" fill="#EEE" opacity="0.8" transform="rotate(909.4736842105262 16.0117247268917 21.6195680646339)" />
</g>
<g>
<rect x="12.6304809652408" y="9.3549249416049" width="15.278466769277" height="15.278466769277" stroke="#4d6ec7" fill="#EEE" opacity="0.8" transform="rotate(966.3157894736842 20.2697143498793 16.9941583262434)" />
</g>
<g>
<rect x="18.1596290525545" y="6.3626996315684" width="15.278466769277" height="15.278466769277" stroke="#367bd6" fill="#EEE" opacity="0.8" transform="rotate(1023.1578947368421 25.798862437193 14.0019330162069)" />
</g>
<g>
<rect x="24.3607666153615" y="5.3279127913876" width="15.278466769277" height="15.278466769277" stroke="#1e88e5" fill="#EEE" opacity="0.8" transform="rotate(1080 32 12.9671461760261)" />
</g>
</g>
</g>
</g>
</svg>